# xmcd
#
# Track frame offsets:
#	150
#	30795
#	42370
#	55067
#	68705
#	86815
#	109372
#	120015
#	127242
#	149317
#	161725
#	176227
#	183475
#	198760
#	203132
#
# Disc length: 2836 seconds
#
# Revision: 0
# Processed by: cddbd v1.4PL0 Copyright (c) Steve Scherf et al.
# Submitted via: EasyCDDAExtractor 4.6.9.1
#
DISCID=d20b120f
DTITLE=Andyboy - One man, six strings and a whole lotta misery
DYEAR=1999
DGENRE=Blues
TTITLE0=Bury me with my boots on
TTITLE1=Lonesome sorrow
TTITLE2=Train... Train...
TTITLE3=My Mama tried
TTITLE4=Freedom Town
TTITLE5=Pickin' myself up
TTITLE6=day by day
TTITLE7=Hangin' Time
TTITLE8=Lonely broken man
TTITLE9=Hellelujah
TTITLE10=Given into sin
TTITLE11=She don't sing
TTITLE12=Chain Gang
TTITLE13=Mr. Mojo Callin'
TTITLE14=Prisoner of love
EXTD=
EXTT0=
EXTT1=
EXTT2=
EXTT3=
EXTT4=
EXTT5=
EXTT6=
EXTT7=
EXTT8=
EXTT9=
EXTT10=
EXTT11=
EXTT12=
EXTT13=
EXTT14=
PLAYORDER=
